# xmcd CD database file
#
# Track frame offsets:
#	150
#	18762
#	32787
#	49220
#	64307
#	77242
#	103520
#	120507
#	139275
#	152682
#	166572
#	190475
#	211005
#	227707
#
# Disc length: 3425 seconds
#
# Revision: 2
# Processed by: cddbd v1.4b41PL1 Copyright (c) Steve Scherf et al.
# Submitted via: Feurio! 1.60 - http://www.feurio.com
#
DISCID=b30d5f0e,bd0d5f0e
DTITLE=Foundations - Every 1's A Winner
DYEAR=1900
DGENRE=
TTITLE0=Every 1's A Winner
TTITLE1=Baby, Now That I've Found You
TTITLE2=Build Me Up Buttercup
TTITLE3=In The Bad Bad Old Days
TTITLE4=Back On My Feet Again
TTITLE5=Let's MakeThis Love Last Forever
TTITLE6=It's A Burning Love
TTITLE7=Every Day
TTITLE8=Any Old Time (You're Lonely And Sad)
TTITLE9=Born To Live, Born To Die
TTITLE10=Same Sad Feeling
TTITLE11=Tender Touch
TTITLE12=Bring Back
TTITLE13=If There Were No Music
EXTD=
EXTT0=
EXTT1=
EXTT2=
EXTT3=
EXTT4=
EXTT5=
EXTT6=
EXTT7=
EXTT8=
EXTT9=
EXTT10=
EXTT11=
EXTT12=
EXTT13=
PLAYORDER=
